<?xml version="1.0" encoding="UTF-8"?>
<svg version="1.1" xmlns="http://www.w3.org/2000/svg" width="512" height="512">
<path d="M0 0 C0.99456207 0.00215515 1.98912415 0.0043103 3.01382446 0.00653076 C17.490952 0.05687789 31.64803064 0.39481409 45.875 3.3125 C47.41196533 3.61849121 47.41196533 3.61849121 48.97998047 3.93066406 C98.78144251 14.06352484 143.28907351 37.04458947 179.875 72.3125 C180.43106934 72.84665527 180.98713867 73.38081055 181.56005859 73.93115234 C188.86962845 80.98902969 195.69707844 88.22665648 201.875 96.3125 C202.39175293 96.97991211 202.90850586 97.64732422 203.44091797 98.33496094 C212.28124173 109.80089868 220.00801854 121.56839764 226.875 134.3125 C227.23255371 134.96718262 227.59010742 135.62186523 227.95849609 136.29638672 C241.65932425 161.59676934 250.09519857 189.0241882 254.875 217.3125 C255.0507959 218.26519775 255.2265918 219.21789551 255.40771484 220.19946289 C256.24662159 226.22279229 256.07915262 232.33763474 256.11328125 238.40625 C256.11735678 239.08823959 256.1214323 239.77022919 256.12563133 240.47288513 C256.14643648 244.09796839 256.16074999 247.72301467 256.17016602 251.34814453 C256.1789371 254.29595174 256.19960412 257.24327381 256.23168945 260.19091797 C256.42066145 277.94734223 255.87315496 294.90456314 251.875 312.3125 C251.65546661 313.28245911 251.43593323 314.25241821 251.20974731 315.25177002 C246.25673024 336.89949936 238.50630513 357.80105013 227.875 377.3125 C227.53146484 377.95799805 227.18792969 378.60349609 226.83398438 379.26855469 C215.62820272 400.29732045 201.39074456 419.1795367 184.875 436.3125 C184.34084473 436.86856934 183.80668945 437.42463867 183.25634766 437.99755859 C176.19847031 445.30712845 168.96084352 452.13457844 160.875 458.3125 C160.20758789 458.82925293 159.54017578 459.34600586 158.85253906 459.87841797 C147.38660132 468.71874173 135.61910236 476.44551854 122.875 483.3125 C122.22031738 483.67005371 121.56563477 484.02760742 120.89111328 484.39599609 C95.59073066 498.09682425 68.1633118 506.53269857 39.875 511.3125 C38.92230225 511.4882959 37.96960449 511.6640918 36.98803711 511.84521484 C30.96470771 512.68412159 24.84986526 512.51665262 18.78125 512.55078125 C17.75826561 512.55689454 17.75826561 512.55689454 16.71461487 512.56313133 C13.08953161 512.58393648 9.46448533 512.59824999 5.83935547 512.60766602 C2.89154826 512.6164371 -0.05577381 512.63710412 -3.00341797 512.66918945 C-20.75984223 512.85816145 -37.71706314 512.31065496 -55.125 508.3125 C-56.09495911 508.09296661 -57.06491821 507.87343323 -58.06427002 507.64724731 C-79.71199936 502.69423024 -100.61355013 494.94380513 -120.125 484.3125 C-120.77049805 483.96896484 -121.41599609 483.62542969 -122.08105469 483.27148438 C-143.10982045 472.06570272 -161.9920367 457.82824456 -179.125 441.3125 C-179.68106934 440.77834473 -180.23713867 440.24418945 -180.81005859 439.69384766 C-188.11962845 432.63597031 -194.94707844 425.39834352 -201.125 417.3125 C-201.64175293 416.64508789 -202.15850586 415.97767578 -202.69091797 415.29003906 C-211.53124173 403.82410132 -219.25801854 392.05660236 -226.125 379.3125 C-226.48255371 378.65781738 -226.84010742 378.00313477 -227.20849609 377.32861328 C-239.34564722 354.91576611 -247.22234292 330.88504685 -252.375 306 C-252.52630371 305.27321045 -252.67760742 304.5464209 -252.83349609 303.79760742 C-255.84691358 288.2929786 -256.49897316 272.94254372 -256.4375 257.1875 C-256.43534485 256.19293793 -256.4331897 255.19837585 -256.43096924 254.17367554 C-256.38062211 239.696548 -256.04268591 225.53946936 -253.125 211.3125 C-252.92100586 210.28785645 -252.71701172 209.26321289 -252.50683594 208.20751953 C-242.37397516 158.40605749 -219.39291053 113.89842649 -184.125 77.3125 C-183.59084473 76.75643066 -183.05668945 76.20036133 -182.50634766 75.62744141 C-175.44847031 68.31787155 -168.21084352 61.49042156 -160.125 55.3125 C-159.45758789 54.79574707 -158.79017578 54.27899414 -158.10253906 53.74658203 C-146.63660132 44.90625827 -134.86910236 37.17948146 -122.125 30.3125 C-121.47031738 29.95494629 -120.81563477 29.59739258 -120.14111328 29.22900391 C-97.72826611 17.09185278 -73.69754685 9.21515708 -48.8125 4.0625 C-48.08571045 3.91119629 -47.3589209 3.75989258 -46.61010742 3.60400391 C-31.1054786 0.59058642 -15.75504372 -0.06147316 0 0 Z " fill="#201E24" transform="translate(256.125,-0.3125)"/>
<path d="M0 0 C6.60190304 6.1115443 11.55083612 13.64252817 16.72265625 20.94921875 C22.5512259 29.17903858 29.04585908 36.79123932 35.6875 44.36791992 C36.76258013 45.59646234 37.83231676 46.82969386 38.89770508 48.06665039 C40.29807022 49.68700809 41.71457833 51.29344294 43.1394043 52.89233398 C49.07713326 59.72302286 53.6490076 66.68868244 57.85934448 74.68841553 C59.21249373 77.25913482 60.59591743 79.81314584 61.9778595 82.36846924 C62.65800201 83.62643917 63.33673149 84.88517424 64.01396179 86.14471436 C66.47091751 90.70764866 69.02250269 95.19593159 71.71875 99.62109375 C72.73195313 101.28785156 72.73195313 101.28785156 73.765625 102.98828125 C74.81340506 104.68178623 75.86226132 106.37467325 76.92382812 108.05957031 C82.63082105 117.11836387 87.41445575 126.04780421 90.78125 136.24609375 C91.29099365 137.69628906 91.29099365 137.69628906 91.81103516 139.17578125 C97.88023017 156.91282425 99.52936152 173.54331655 99.46875 192.24609375 C99.46792419 193.28677002 99.46709839 194.32744629 99.46624756 195.3996582 C99.4530736 198.39103375 99.4118254 201.38024383 99.35546875 204.37109375 C99.34052116 205.71149719 99.34052116 205.71149719 99.32527161 207.07897949 C99.14070044 213.23179368 98.34032698 218.5105287 93.96875 223.18359375 C90.82182895 224.71209826 89.2748512 224.83934678 85.78125 224.24609375 C73.45435531 218.73387858 66.90348964 205.26251972 61.28125 193.74609375 C53.89731099 179.08058561 45.51182256 165.14411087 36.78125 151.24609375 C36.28592773 150.45654297 35.79060547 149.66699219 35.28027344 148.85351562 C32.18090355 143.93948876 28.99228415 139.08767325 25.78125 134.24609375 C25.06066406 133.15570801 24.34007812 132.06532227 23.59765625 130.94189453 C13.71178393 115.98667356 3.7388664 101.10743506 -6.63818359 86.48681641 C-8.24969502 84.2022239 -9.83995143 81.90404213 -11.42578125 79.6015625 C-22.4434505 62.93530728 -22.4434505 62.93530728 -38.21875 51.24609375 C-41.40390981 50.49912136 -41.40390981 50.49912136 -44.21875 52.24609375 C-49.84142035 58.13293877 -53.063046 64.64734581 -55.90625 72.18359375 C-56.31705811 73.24046387 -56.72786621 74.29733398 -57.15112305 75.38623047 C-62.84475874 90.21196964 -68.0740718 105.22233008 -73.21875 120.24609375 C-73.44946198 120.91941742 -73.68017395 121.59274109 -73.9178772 122.28646851 C-76.69927686 130.43272049 -79.15442088 138.52606095 -81.12890625 146.90625 C-82.54089671 151.23331754 -84.36761916 154.83495332 -88.04296875 157.63671875 C-96.6789337 161.61976338 -106.33731953 164.10937338 -115.7578125 161.55859375 C-125.44595355 157.95928438 -133.08417387 151.61575155 -141.01538086 145.18896484 C-148.41727332 139.21919935 -156.09389015 133.63546154 -163.77490234 128.03271484 C-166.99296691 125.68008782 -170.19823909 123.31036815 -173.40356445 120.94042969 C-177.33629284 118.03459608 -181.27661047 115.13914213 -185.21875 112.24609375 C-185.97542969 111.69034668 -186.73210937 111.13459961 -187.51171875 110.56201172 C-198.54667457 102.47335112 -209.78462017 94.75833122 -221.21875 87.24609375 C-226.63425855 83.68204111 -232.03675389 80.12450711 -237.2734375 76.30078125 C-248.76449111 67.93601766 -259.44503356 60.24609375 -274.21875 60.24609375 C-274.53182386 61.95432201 -274.84418008 63.6626818 -275.15625 65.37109375 C-275.33027344 66.32242188 -275.50429688 67.27375 -275.68359375 68.25390625 C-275.94849609 69.73503906 -275.94849609 69.73503906 -276.21875 71.24609375 C-276.40050781 72.1896875 -276.58226562 73.13328125 -276.76953125 74.10546875 C-281.62497139 108.05132851 -267.29214566 143.99473182 -255.43945312 175.12084961 C-252.75264981 182.23633775 -250.67877326 189.03142056 -253.40625 196.49609375 C-255.46161425 199.61457745 -256.89133307 200.61297681 -260.21875 202.24609375 C-277.19411711 204.80623743 -296.81963451 195.46628734 -310.69140625 186.12109375 C-329.26108926 172.34451285 -335.4198846 154.53769186 -338.8125 132.36572266 C-339.69591587 126.35680613 -340.53835569 120.34242927 -341.35229492 114.32373047 C-342.33884869 107.07634549 -343.41743919 99.93026578 -344.99414062 92.78295898 C-347.29544587 82.18126415 -347.64716989 71.74052823 -347.71875 60.93359375 C-347.73441513 59.80463181 -347.73441513 59.80463181 -347.75039673 58.65286255 C-347.95828386 39.52175502 -344.28054211 19.91940567 -331.21875 5.24609375 C-330.68507813 4.60800781 -330.15140625 3.96992188 -329.6015625 3.3125 C-322.51912129 -4.56629225 -311.64683055 -8.44373255 -301.21875 -9.19140625 C-283.8289517 -8.62467183 -268.83706841 2.07547212 -256.1015625 12.91015625 C-250.77228074 17.22846315 -245.01733633 20.95138212 -239.34228516 24.79589844 C-235.7940893 27.21901678 -232.28748733 29.70031187 -228.78125 32.18359375 C-228.07661621 32.68221924 -227.37198242 33.18084473 -226.64599609 33.69458008 C-225.21708031 34.7060909 -223.78836956 35.71789141 -222.35986328 36.72998047 C-218.81577704 39.23953298 -215.2670439 41.74249593 -211.71875 44.24609375 C-210.30206078 45.24606179 -208.88539412 46.2460618 -207.46875 47.24609375 C-206.7675 47.74109375 -206.06625 48.23609375 -205.34375 48.74609375 C-203.21875 50.24609375 -201.09375 51.74609375 -198.96875 53.24609375 C-198.26693604 53.74141602 -197.56512207 54.23673828 -196.84204102 54.74707031 C-195.43078197 55.74340589 -194.01981005 56.74014828 -192.60913086 57.73730469 C-188.98701984 60.29684611 -185.35961868 62.84831557 -181.72265625 65.38671875 C-174.01143969 70.77850648 -166.50529104 76.28649469 -159.21875 82.24609375 C-144.82285777 94.41810985 -144.82285777 94.41810985 -127.23828125 99.70703125 C-122.63240912 98.65578771 -120.62472111 95.0266235 -118.21875 91.24609375 C-112.61215271 80.58108132 -108.74529541 69.50529068 -105.09375 58.05859375 C-96.34207233 30.82769494 -96.34207233 30.82769494 -89.46875 20.12109375 C-88.82522583 19.10716553 -88.82522583 19.10716553 -88.16870117 18.07275391 C-82.76828774 9.7603042 -76.23580942 2.14410663 -68.21875 -3.75390625 C-67.61289062 -4.20507812 -67.00703125 -4.65625 -66.3828125 -5.12109375 C-47.36458885 -17.43557573 -17.07382618 -13.49673936 0 0 Z " fill="#FEFEFE" transform="translate(380.21875,149.75390625)"/>
<path d="M0 0 C16.21238806 4.42951855 32.72436274 9.10256228 41.77734375 24.484375 C45.77138225 32.28634985 46.30421805 39.63912206 45.4921875 48.30078125 C44.24717042 51.51661013 43.37579863 52.15341126 40.4921875 54.30078125 C33.93993741 57.12724207 26.1872122 57.40889815 19.3671875 55.23828125 C14.62533345 53.19519784 11.15424407 49.86573784 7.4921875 46.30078125 C6.7703125 45.61757812 6.0484375 44.934375 5.3046875 44.23046875 C-0.46571903 38.64038743 -5.5847014 32.64366596 -10.5078125 26.30078125 C-11.13429688 25.53765625 -11.76078125 24.77453125 -12.40625 23.98828125 C-16.22945878 18.9624669 -17.27771204 15.08151155 -16.90625 8.7578125 C-16.40508174 5.66727489 -15.56872336 3.66701224 -13.5078125 1.30078125 C-9.00066589 -1.70398316 -5.19363978 -1.03525782 0 0 Z " fill="#B4E51C" transform="translate(433.5078125,138.69921875)"/>
</svg>
